<svg width="214" height="212" viewBox="0 0 214 212" fill="none" xmlns="http://www.w3.org/2000/svg">
<path opacity="0.5" d="M205.748 16.3031C201.2 16.3031 197.495 12.6432 197.495 8.15156C197.495 3.65988 201.2 0 205.748 0C210.295 0 214 3.65988 214 8.15156C214 12.6432 210.323 16.3031 205.748 16.3031ZM214 56.9224C214 52.4307 210.295 48.7708 205.748 48.7708C201.2 48.7708 197.495 52.4307 197.495 56.9224C197.495 61.414 201.2 65.0739 205.748 65.0739C210.323 65.0739 214 61.4418 214 56.9224ZM214 105.693C214 101.202 210.295 97.5416 205.748 97.5416C201.2 97.5416 197.495 101.202 197.495 105.693C197.495 110.185 201.2 113.845 205.748 113.845C210.323 113.845 214 110.213 214 105.693ZM214 154.464C214 149.972 210.295 146.312 205.748 146.312C201.2 146.312 197.495 149.972 197.495 154.464C197.495 158.956 201.2 162.616 205.748 162.616C210.323 162.643 214 158.983 214 154.464ZM214 203.263C214 198.771 210.295 195.111 205.748 195.111C201.2 195.111 197.495 198.771 197.495 203.263C197.495 207.754 201.2 211.414 205.748 211.414C210.323 211.414 214 207.754 214 203.263ZM164.626 8.15156C164.626 3.65988 160.921 0 156.374 0C151.827 0 148.121 3.65988 148.121 8.15156C148.121 12.6432 151.827 16.3031 156.374 16.3031C160.949 16.3031 164.626 12.6432 164.626 8.15156ZM164.626 56.9224C164.626 52.4307 160.921 48.7708 156.374 48.7708C151.827 48.7708 148.121 52.4307 148.121 56.9224C148.121 61.414 151.827 65.0739 156.374 65.0739C160.949 65.0739 164.626 61.4418 164.626 56.9224ZM164.626 105.693C164.626 101.202 160.921 97.5416 156.374 97.5416C151.827 97.5416 148.121 101.202 148.121 105.693C148.121 110.185 151.827 113.845 156.374 113.845C160.949 113.845 164.626 110.213 164.626 105.693ZM164.626 154.464C164.626 149.972 160.921 146.312 156.374 146.312C151.827 146.312 148.121 149.972 148.121 154.464C148.121 158.956 151.827 162.616 156.374 162.616C160.949 162.643 164.626 158.983 164.626 154.464ZM164.626 203.263C164.626 198.771 160.921 195.111 156.374 195.111C151.827 195.111 148.121 198.771 148.121 203.263C148.121 207.754 151.827 211.414 156.374 211.414C160.949 211.414 164.626 207.754 164.626 203.263ZM115.252 8.15156C115.252 3.65988 111.547 0 107 0C102.453 0 98.7476 3.65988 98.7476 8.15156C98.7476 12.6432 102.453 16.3031 107 16.3031C111.547 16.3031 115.252 12.6432 115.252 8.15156ZM115.252 56.9224C115.252 52.4307 111.547 48.7708 107 48.7708C102.453 48.7708 98.7476 52.4307 98.7476 56.9224C98.7476 61.414 102.453 65.0739 107 65.0739C111.547 65.0739 115.252 61.4418 115.252 56.9224ZM115.252 105.693C115.252 101.202 111.547 97.5416 107 97.5416C102.453 97.5416 98.7476 101.202 98.7476 105.693C98.7476 110.185 102.453 113.845 107 113.845C111.547 113.845 115.252 110.213 115.252 105.693ZM115.252 154.464C115.252 149.972 111.547 146.312 107 146.312C102.453 146.312 98.7476 149.972 98.7476 154.464C98.7476 158.956 102.453 162.616 107 162.616C111.547 162.616 115.252 158.983 115.252 154.464ZM115.252 203.263C115.252 198.771 111.547 195.111 107 195.111C102.453 195.111 98.7476 198.771 98.7476 203.263C98.7476 207.754 102.453 211.414 107 211.414C111.547 211.414 115.252 207.754 115.252 203.263ZM65.8785 8.15156C65.8785 3.65988 62.1734 0 57.6262 0C53.079 0 49.3738 3.65988 49.3738 8.15156C49.3738 12.6432 53.079 16.3031 57.6262 16.3031C62.1734 16.3031 65.8785 12.6432 65.8785 8.15156ZM65.8785 56.9224C65.8785 52.4307 62.1734 48.7708 57.6262 48.7708C53.079 48.7708 49.3738 52.4307 49.3738 56.9224C49.3738 61.414 53.079 65.0739 57.6262 65.0739C62.1734 65.0739 65.8785 61.4418 65.8785 56.9224ZM65.8785 105.693C65.8785 101.202 62.1734 97.5416 57.6262 97.5416C53.079 97.5416 49.3738 101.202 49.3738 105.693C49.3738 110.185 53.079 113.845 57.6262 113.845C62.1734 113.845 65.8785 110.213 65.8785 105.693ZM65.8785 154.464C65.8785 149.972 62.1734 146.312 57.6262 146.312C53.079 146.312 49.3738 149.972 49.3738 154.464C49.3738 158.956 53.079 162.616 57.6262 162.616C62.1734 162.643 65.8785 158.983 65.8785 154.464ZM65.8785 203.263C65.8785 198.771 62.1734 195.111 57.6262 195.111C53.079 195.111 49.3738 198.771 49.3738 203.263C49.3738 207.754 53.079 211.414 57.6262 211.414C62.1734 211.414 65.8785 207.754 65.8785 203.263ZM16.5047 8.15156C16.5047 3.65988 12.7996 0 8.25237 0C3.70515 0 0 3.65988 0 8.15156C0 12.6432 3.70515 16.3031 8.25237 16.3031C12.7996 16.3031 16.5047 12.6432 16.5047 8.15156ZM16.5047 56.9224C16.5047 52.4307 12.7996 48.7708 8.25237 48.7708C3.70515 48.7708 0 52.4307 0 56.9224C0 61.414 3.70515 65.0739 8.25237 65.0739C12.7996 65.0739 16.5047 61.4418 16.5047 56.9224ZM16.5047 105.693C16.5047 101.202 12.7996 97.5416 8.25237 97.5416C3.70515 97.5416 0 101.202 0 105.693C0 110.185 3.70515 113.845 8.25237 113.845C12.7996 113.845 16.5047 110.213 16.5047 105.693ZM16.5047 154.464C16.5047 149.972 12.7996 146.312 8.25237 146.312C3.70515 146.312 0 149.972 0 154.464C0 158.956 3.70515 162.616 8.25237 162.616C12.7996 162.643 16.5047 158.983 16.5047 154.464ZM16.5047 203.263C16.5047 198.771 12.7996 195.111 8.25237 195.111C3.70515 195.111 0 198.771 0 203.263C0 207.754 3.70515 211.414 8.25237 211.414C12.7996 211.414 16.5047 207.754 16.5047 203.263Z" fill="#7371FC"/>
</svg>
