<svg width="244" height="243" viewBox="0 0 244 243" fill="none" xmlns="http://www.w3.org/2000/svg">
<g opacity="0.5">
<path d="M233.583 168.522C235.461 164.028 237.07 159.433 238.412 154.772L88.2348 4.59485C83.5732 5.90278 78.9788 7.51254 74.4849 9.42413L233.583 168.522Z" fill="#7371FC"/>
<path d="M223.287 187.973C225.802 184.15 228.049 180.193 230.062 176.168L66.8052 12.9119C62.7808 14.9241 58.8234 17.171 55.0002 19.6862L223.287 187.973Z" fill="#7371FC"/>
<path d="M210.174 204.607C213.225 201.354 216.042 198 218.658 194.513L48.4598 24.3141C44.972 26.9299 41.6183 29.7806 38.3652 32.7989L210.174 204.607Z" fill="#7371FC"/>
<path d="M6.43848 160.741C12.2403 177.811 21.9324 193.842 35.5483 207.458C49.1641 221.073 65.1946 230.766 82.2648 236.567L6.43848 160.741Z" fill="#7371FC"/>
<path d="M145.481 2.31404C138.573 0.939034 131.597 0.167683 124.588 0L243.006 118.418C242.838 111.409 242.067 104.433 240.692 97.5245L145.481 2.31404Z" fill="#7371FC"/>
<path d="M240.593 145.784C241.699 140.351 242.404 134.885 242.773 129.385L113.623 0.235229C108.123 0.604133 102.623 1.30838 97.2236 2.41509L240.593 145.784Z" fill="#7371FC"/>
<path d="M176.167 230.061C180.191 228.049 184.148 225.802 187.972 223.286L19.7184 55.0332C17.2031 58.8564 14.9563 62.8137 12.9441 66.8381L176.167 230.061Z" fill="#7371FC"/>
<path d="M97.5246 240.66C104.433 242.035 111.409 242.806 118.418 242.974L0 124.556C0.167683 131.565 0.939034 138.541 2.31404 145.449L97.5246 240.66Z" fill="#7371FC"/>
<path d="M236.533 82.2319C230.731 65.1618 221.039 49.1313 207.424 35.5154C193.808 21.8995 177.777 12.2075 160.707 6.40564L236.533 82.2319Z" fill="#7371FC"/>
<path d="M154.771 238.412C159.433 237.104 164.027 235.494 168.521 233.582L9.38963 74.451C7.51157 78.945 5.90201 83.5394 4.56055 88.201L154.771 238.412Z" fill="#7371FC"/>
<path d="M129.385 242.771C134.885 242.402 140.385 241.698 145.784 240.591L2.38138 97.1888C1.27467 102.622 0.570319 108.088 0.201416 113.588L129.385 242.771Z" fill="#7371FC"/>
<path d="M194.512 218.659C198 216.043 201.354 213.192 204.607 210.174L32.832 38.3994C29.7802 41.6525 26.963 45.0061 24.3472 48.4939L194.512 218.659Z" fill="#7371FC"/>
</g>
</svg>
