<svg width="198" height="198" viewBox="0 0 198 198" fill="none" xmlns="http://www.w3.org/2000/svg">
<g opacity="0.5">
<path d="M190.322 137.311C191.852 133.649 193.164 129.906 194.257 126.107L71.8933 3.7439C68.0951 4.80959 64.3516 6.12122 60.6899 7.67877L190.322 137.311Z" fill="#7371FC"/>
<path d="M181.933 153.159C183.983 150.044 185.813 146.82 187.453 143.541L54.4326 10.5205C51.1535 12.16 47.9291 13.9908 44.814 16.0402L181.933 153.159Z" fill="#7371FC"/>
<path d="M171.248 166.713C173.735 164.062 176.03 161.33 178.162 158.488L39.4848 19.811C36.6429 21.9424 33.9103 24.2651 31.2598 26.7244L171.248 166.713Z" fill="#7371FC"/>
<path d="M5.24609 130.971C9.9734 144.88 17.8704 157.941 28.9646 169.035C40.0587 180.13 53.1203 188.027 67.029 192.754L5.24609 130.971Z" fill="#7371FC"/>
<path d="M118.537 1.88546C112.908 0.76512 107.225 0.136627 101.514 0L198 96.4863C197.863 90.7752 197.235 85.0915 196.114 79.4625L118.537 1.88546Z" fill="#7371FC"/>
<path d="M196.034 118.784C196.935 114.357 197.509 109.903 197.81 105.422L92.5795 0.19165C88.0981 0.492231 83.6167 1.06605 79.2173 1.96779L196.034 118.784Z" fill="#7371FC"/>
<path d="M143.54 187.452C146.819 185.813 150.043 183.982 153.158 181.933L16.0665 44.8408C14.0171 47.9559 12.1864 51.1803 10.5469 54.4594L143.54 187.452Z" fill="#7371FC"/>
<path d="M79.4625 196.088C85.0916 197.209 90.7752 197.837 96.4863 197.974L0 101.488C0.136627 107.199 0.76512 112.882 1.88546 118.511L79.4625 196.088Z" fill="#7371FC"/>
<path d="M192.726 67.0021C187.999 53.0934 180.102 40.0319 169.008 28.9377C157.914 17.8436 144.852 9.94655 130.943 5.21924L192.726 67.0021Z" fill="#7371FC"/>
<path d="M126.107 194.257C129.905 193.191 133.648 191.879 137.31 190.322L7.65053 60.6624C6.1203 64.324 4.80884 68.0675 3.71582 71.8657L126.107 194.257Z" fill="#7371FC"/>
<path d="M105.422 197.809C109.903 197.508 114.385 196.934 118.784 196.033L1.94029 79.189C1.03854 83.6157 0.464643 88.0697 0.164062 92.5511L105.422 197.809Z" fill="#7371FC"/>
<path d="M158.487 178.162C161.329 176.031 164.062 173.708 166.712 171.249L26.7513 31.2876C24.2647 33.9382 21.9693 36.6707 19.8379 39.5125L158.487 178.162Z" fill="#7371FC"/>
</g>
</svg>
