<svg width="24" height="24" viewBox="0 0 24 24" fill="none" xmlns="http://www.w3.org/2000/svg">
<path fill-rule="evenodd" clip-rule="evenodd" d="M14.5959 18.826C12.5839 18.826 10.2166 17.758 8.22856 15.7713C5.05656 12.5987 4.22856 8.45734 6.34322 6.34267C6.96789 5.71867 7.72789 5.33867 8.60456 5.21201L9.11122 5.13867L10.9759 9.48667L9.11122 10.4187C9.54322 11.2373 10.1979 12.0833 11.0572 12.9427C11.8766 13.762 12.7219 14.412 13.5706 14.8733L14.4466 13.158L18.7686 13.7753L18.7939 14.3267C18.8572 15.6993 18.4639 16.8507 17.6566 17.6573C16.8672 18.4467 15.7946 18.826 14.5959 18.826ZM8.30722 6.64801C7.92389 6.77667 7.58122 6.99067 7.28589 7.28667C5.75256 8.81934 6.61656 12.2733 9.17122 14.8287C11.7272 17.384 15.1806 18.246 16.7139 16.714C17.2246 16.2033 17.4086 15.53 17.4539 14.934L15.2092 14.6133L14.7786 15.476C14.6159 15.8013 14.3352 16.0407 13.9879 16.1493C13.6406 16.2593 13.2552 16.22 12.9326 16.0447C11.9726 15.5227 11.0239 14.796 10.1139 13.886C9.16056 12.9327 8.42789 11.98 7.93522 11.054C7.76389 10.7307 7.73122 10.3613 7.84189 10.0133C7.95256 9.66734 8.19189 9.388 8.51656 9.22534L9.25389 8.85667L8.30722 6.64801Z" fill="white"/>
</svg>
