<svg width="64" height="64" viewBox="0 0 64 64" fill="none" xmlns="http://www.w3.org/2000/svg">
<path d="M49.6002 32.4488L32.0056 16.8669L14.4009 32.4556V54.7306C14.4009 55.3059 14.8657 55.7674 15.441 55.7674H26.4436V46.001C26.4436 45.4257 26.9051 44.9608 27.4804 44.9608H36.5209C37.0962 44.9608 37.5577 45.4257 37.5577 46.001V55.7674H48.5636C49.1388 55.7674 49.6003 55.3059 49.6003 54.7306V32.4482L49.6002 32.4488Z" fill="white"/>
<path d="M31.904 8.33777L6.93579 30.4469L9.56588 33.4141L32.0068 13.5428L54.4422 33.4141L57.0674 30.4469L32.1047 8.33777L32.0077 8.45014L31.9055 8.33777H31.904Z" fill="white"/>
<path d="M14.4006 11.5083H20.7303L20.6752 15.2573L14.4008 20.9256V11.5083H14.4006Z" fill="white"/>
</svg>
