<?xml version="1.0" standalone="no"?>
<!DOCTYPE svg PUBLIC "-//W3C//DTD SVG 20010904//EN"
 "http://www.w3.org/TR/2001/REC-SVG-20010904/DTD/svg10.dtd">
<svg version="1.0" xmlns="http://www.w3.org/2000/svg"
 width="260.000000pt" height="260.000000pt" viewBox="0 0 260.000000 260.000000"
 preserveAspectRatio="xMidYMid meet">
<metadata>
Created by potrace 1.14, written by Peter Selinger 2001-2017
</metadata>
<g transform="translate(0.000000,260.000000) scale(0.100000,-0.100000)"
fill="#000000" stroke="none">
<path d="M0 1300 l0 -1300 1300 0 1300 0 0 1300 0 1300 -1300 0 -1300 0 0
-1300z m1913 703 c8 -16 106 -266 218 -558 179 -466 208 -534 240 -566 21 -21
52 -40 70 -44 65 -13 69 -15 69 -46 l0 -29 -265 0 -265 0 0 30 c0 31 0 32 85
45 54 9 75 22 75 46 0 12 -24 86 -52 165 l-53 144 -220 -2 -219 -3 -32 -86
c-18 -47 -38 -113 -45 -147 -18 -88 -10 -95 149 -128 17 -3 22 -11 22 -34 l0
-30 -235 0 -235 0 0 30 c0 17 6 32 13 34 6 2 31 9 55 15 23 7 57 27 76 45 40
40 51 68 281 661 98 253 183 466 188 473 5 6 22 12 38 12 21 0 32 -7 42 -27z
m-795 -145 l-3 -153 -31 -3 c-27 -3 -33 1 -44 30 -22 54 -87 145 -122 170 -31
22 -43 23 -215 26 l-183 4 0 -248 0 -247 108 5 c71 4 119 11 139 21 39 21 69
69 85 135 11 50 13 52 45 52 l33 0 0 -251 0 -250 -32 3 c-29 3 -32 7 -48 65
-33 123 -65 144 -222 151 l-108 5 0 -214 c0 -118 5 -231 11 -251 17 -62 47
-72 224 -72 90 0 167 5 192 12 56 17 98 68 153 186 44 92 46 95 79 96 l34 0
-7 -117 c-4 -65 -9 -148 -13 -185 l-6 -68 -519 0 -519 0 3 33 c3 31 5 32 58
38 68 7 98 22 110 55 15 38 13 956 -1 988 -13 27 -64 52 -129 62 -38 6 -40 9
-40 40 l0 34 485 0 486 0 -3 -152z"/>
<path d="M1801 1719 c-30 -80 -160 -417 -166 -431 -7 -17 6 -18 180 -18 146 0
186 3 182 13 -3 6 -44 111 -92 232 -47 121 -88 221 -90 224 -3 2 -9 -7 -14
-20z"/>
</g>
</svg>
